<svg xmlns="http://www.w3.org/2000/svg" viewBox="0 0 469.09 133.87"><defs><style>.cls-1{fill:#787878;}.cls-2{fill:#f90;}.cls-3{fill:none;}.cls-4{fill:#f6971f;}</style></defs><title>39dg-logo</title><g id="copy"><path class="cls-1" d="M53.14,46.26a10.09,10.09,0,0,1,2.35,3.22,11.69,11.69,0,0,1,.92,5,13.82,13.82,0,0,1-1.1,5.57,13.26,13.26,0,0,1-3.1,4.41A14.06,14.06,0,0,1,47,67.56a21.05,21.05,0,0,1-6.63,1,30.38,30.38,0,0,1-7.27-.88,34.14,34.14,0,0,1-5.87-1.92V59.53h.45a24.31,24.31,0,0,0,6,2.77,21.57,21.57,0,0,0,6.62,1.1,14.12,14.12,0,0,0,4-.63,8.45,8.45,0,0,0,3.43-1.85,8.7,8.7,0,0,0,2-2.89,10.28,10.28,0,0,0,.67-4,9,9,0,0,0-.76-3.95,6.07,6.07,0,0,0-2.1-2.46,8.23,8.23,0,0,0-3.25-1.27A23.33,23.33,0,0,0,40.12,46H37.43V41.07h2.09a12.36,12.36,0,0,0,7.23-1.89,6.33,6.33,0,0,0,2.7-5.53,5.42,5.42,0,0,0-2.59-4.8,8.58,8.58,0,0,0-2.74-1.07,16.67,16.67,0,0,0-3.31-.3,19.93,19.93,0,0,0-6,1,24.61,24.61,0,0,0-6,2.86h-.3V25.13a28.84,28.84,0,0,1,5.65-1.92A28.3,28.3,0,0,1,41,22.32a24.59,24.59,0,0,1,5.72.6,14.09,14.09,0,0,1,4.47,1.91A9.25,9.25,0,0,1,55.5,33a9.09,9.09,0,0,1-2.61,6.45A11.43,11.43,0,0,1,46.73,43v.42a15.52,15.52,0,0,1,3.28,1A11,11,0,0,1,53.14,46.26Z" transform="translate(-19.87 -1)"/><path class="cls-1" d="M95.8,42.77a39.15,39.15,0,0,1-1.33,10.55,22.33,22.33,0,0,1-4,8.08,18.11,18.11,0,0,1-6.8,5.25,23.11,23.11,0,0,1-9.6,1.85,24.73,24.73,0,0,1-2.92-.16,12.39,12.39,0,0,1-2.44-.52V62.12H69a11.93,11.93,0,0,0,2.44.85,14.27,14.27,0,0,0,3.52.4q6.59,0,10.33-3.95t4.34-10.9a22.5,22.5,0,0,1-5.22,2.39,19,19,0,0,1-5.34.72,21.18,21.18,0,0,1-5-.54A13.36,13.36,0,0,1,69.66,49a11.56,11.56,0,0,1-4-4.62,15.56,15.56,0,0,1-1.33-6.71,14.59,14.59,0,0,1,4.47-11.06,15.22,15.22,0,0,1,10.91-4.26,17.3,17.3,0,0,1,6,1,13.38,13.38,0,0,1,4.8,3,16.3,16.3,0,0,1,3.91,6.36A30.82,30.82,0,0,1,95.8,42.77Zm-6-1.28a23.63,23.63,0,0,0-1-7.42,10.37,10.37,0,0,0-2.62-4.35,8.56,8.56,0,0,0-3-1.92,10.19,10.19,0,0,0-3.49-.58,8.8,8.8,0,0,0-6.78,2.68q-2.49,2.68-2.49,7.54a11.34,11.34,0,0,0,.8,4.62,8.06,8.06,0,0,0,5.66,4.37,18.77,18.77,0,0,0,3.58.31,18.9,18.9,0,0,0,9.18-2.44q0-.63.07-1.24T89.78,41.49Z" transform="translate(-19.87 -1)"/><path class="cls-1" d="M104.7,23.15h9.1q9.06,0,14.53,6.17t5.46,16.93q0,11-5.55,17a18.44,18.44,0,0,1-14.22,6H104.7Zm5.37,41.49h3.8a12.52,12.52,0,0,0,10.41-4.88q3.83-4.87,3.83-13.51t-3.85-13.5a12.49,12.49,0,0,0-10.39-4.92h-3.8Z" transform="translate(-19.87 -1)"/><path class="cls-1" d="M158.1,22.27a13.32,13.32,0,0,1,11.83,6.14Q174,34.54,174,46.26t-4.06,17.8q-4.06,6.15-11.85,6.15a13.29,13.29,0,0,1-11.8-6.14q-4.07-6.14-4.07-17.82t4.06-17.83A13.27,13.27,0,0,1,158.1,22.27Zm0,43.23q10.21,0,10.21-19.24T158.1,27q-5,0-7.58,5t-2.6,14.28q0,9.39,2.58,14.32T158.1,65.5Z" transform="translate(-19.87 -1)"/><path class="cls-1" d="M211.8,69.33H186.67V23.15H192V64.65H211.8Z" transform="translate(-19.87 -1)"/><path class="cls-1" d="M252,69.33H226.89V23.15h5.37V64.65H252Z" transform="translate(-19.87 -1)"/><path class="cls-1" d="M297.21,69.33h-5.63l-5.11-16.16H271.32l-5.17,16.16h-5.56l15.09-46.17h6.45ZM284.94,48.48l-6.05-19.11-6,19.11Z" transform="translate(-19.87 -1)"/><path class="cls-1" d="M337.36,69.33h-6.71l-13.55-21h-6v21h-5.37V23.15h13.06q6.58,0,10.39,3.19A11,11,0,0,1,333,35.23a11.3,11.3,0,0,1-2.78,7.51,14,14,0,0,1-7.66,4.47ZM311.15,43.67h6.77a10.14,10.14,0,0,0,6.9-2.31,7.37,7.37,0,0,0,2.65-5.81q0-7.72-9.42-7.72h-6.9Z" transform="translate(-19.87 -1)"/><path class="cls-2" d="M70.46,129.19q-1.87.86-3.19,1.4a48.16,48.16,0,0,1-19.19,4.27,26.83,26.83,0,0,1-20.17-8.35q-8-8.35-8-20.87,0-12.74,8.39-21t21.29-8.24a34.77,34.77,0,0,1,18,5.05L66.19,95.31q-.7-.7-2.1-1.87a21.31,21.31,0,0,0-14-5.52,16,16,0,0,0-12.2,5q-4.66,5-4.66,12.82t4.55,12.75a15.52,15.52,0,0,0,11.93,4.9,27.26,27.26,0,0,0,7.69-1.24v-8.55H47V102.85H70.46Z" transform="translate(-19.87 -1)"/><path class="cls-2" d="M116.7,133H82V78.29H95V121.5H116.7Z" transform="translate(-19.87 -1)"/><path class="cls-2" d="M174.83,133h-13.6l-3.42-8.08H135L131.62,133h-12.9l27.74-56.57h1.09Zm-20.9-17.25L146.38,98l-7.46,17.72Z" transform="translate(-19.87 -1)"/><path class="cls-2" d="M214.54,117.07q0,8.08-5.52,12.94t-14.77,4.86a48.68,48.68,0,0,1-14.45-2.49l-1.09-14.61a58,58,0,0,0,6.29,3.57,20.31,20.31,0,0,0,8.78,2,10.57,10.57,0,0,0,5.94-1.48,4.55,4.55,0,0,0,2.21-4,5.51,5.51,0,0,0-1.59-3.77q-1.59-1.75-7.42-4.93-7.31-4-10.34-7a14.38,14.38,0,0,1-4.27-10.72,13.7,13.7,0,0,1,4.86-10.88q4.86-4.2,12.55-4.2,5.75,0,14.61,2.72V92q-8.16-5.28-14.38-5.28-5.52,0-5.52,4.51a4.65,4.65,0,0,0,2.18,3.73,48.71,48.71,0,0,0,6.22,3.58q8.7,4.51,12.2,8.66A14.9,14.9,0,0,1,214.54,117.07Z" transform="translate(-19.87 -1)"/><path class="cls-2" d="M257.75,117.07q0,8.08-5.52,12.94t-14.77,4.86A48.68,48.68,0,0,1,223,132.38l-1.09-14.61a58,58,0,0,0,6.29,3.57,20.31,20.31,0,0,0,8.78,2,10.57,10.57,0,0,0,5.94-1.48,4.55,4.55,0,0,0,2.21-4,5.51,5.51,0,0,0-1.59-3.77q-1.59-1.75-7.42-4.93-7.31-4-10.34-7a14.38,14.38,0,0,1-4.27-10.72,13.7,13.7,0,0,1,4.86-10.88q4.86-4.2,12.55-4.2,5.75,0,14.61,2.72V92q-8.16-5.28-14.38-5.28-5.52,0-5.52,4.51a4.65,4.65,0,0,0,2.18,3.73A48.71,48.71,0,0,0,242,98.5q8.7,4.51,12.2,8.66A14.9,14.9,0,0,1,257.75,117.07Z" transform="translate(-19.87 -1)"/><path class="cls-2" d="M299.87,133H267.69V78.29h32.17V89.48H280.75v10.1H296.6v11.19H280.75v11h19.12Z" transform="translate(-19.87 -1)"/><path class="cls-2" d="M344.16,117.07q0,8.08-5.52,12.94t-14.77,4.86a48.67,48.67,0,0,1-14.45-2.49l-1.09-14.61a57.88,57.88,0,0,0,6.29,3.57,20.31,20.31,0,0,0,8.78,2,10.57,10.57,0,0,0,5.95-1.48,4.55,4.55,0,0,0,2.21-4,5.51,5.51,0,0,0-1.59-3.77q-1.59-1.75-7.42-4.93-7.31-4-10.34-7a14.38,14.38,0,0,1-4.27-10.72,13.7,13.7,0,0,1,4.86-10.88q4.85-4.2,12.55-4.2,5.75,0,14.61,2.72V92q-8.16-5.28-14.38-5.28-5.52,0-5.52,4.51a4.65,4.65,0,0,0,2.18,3.73,48.75,48.75,0,0,0,6.22,3.58q8.7,4.51,12.2,8.66A14.9,14.9,0,0,1,344.16,117.07Z" transform="translate(-19.87 -1)"/><path class="cls-1" d="M363.51,125.23h6.35v6.62h-6.35Z" transform="translate(-19.87 -1)"/><path class="cls-1" d="M401,101.05q3.45,2.67,4.15,9.2h-5.32a9.81,9.81,0,0,0-2.22-5q-1.73-2-5.56-2-5.23,0-7.47,5.1a20.24,20.24,0,0,0-1.46,8.16,15.34,15.34,0,0,0,2.07,8.22A8,8,0,0,0,397.06,126a11.38,11.38,0,0,0,2.75-5.67h5.32q-.91,6.47-4.56,9.46a14.22,14.22,0,0,1-9.33,3,12.45,12.45,0,0,1-10.18-4.66,17.85,17.85,0,0,1-3.8-11.65q0-8.57,4.16-13.33A13.44,13.44,0,0,1,392,98.38,14.19,14.19,0,0,1,401,101.05Z" transform="translate(-19.87 -1)"/><path class="cls-1" d="M434.16,102.57q4.31,4.19,4.31,12.32,0,7.86-3.8,13T422.88,133a13.28,13.28,0,0,1-10.59-4.54q-3.92-4.54-3.92-12.19,0-8.19,4.13-13a13.83,13.83,0,0,1,11.1-4.86A14.58,14.58,0,0,1,434.16,102.57Zm-3.39,21.62a20.65,20.65,0,0,0,2-9.15,16.43,16.43,0,0,0-1.44-7.4q-2.28-4.49-7.87-4.49-5,0-7.21,3.82a17.87,17.87,0,0,0-2.25,9.22,15.54,15.54,0,0,0,2.25,8.65q2.25,3.46,7.15,3.46Q428.77,128.3,430.77,124.19Z" transform="translate(-19.87 -1)"/><path class="cls-1" d="M445.19,99.32h5.41v4.62a18.17,18.17,0,0,1,3.52-3.49,10.6,10.6,0,0,1,6.14-1.85,9.66,9.66,0,0,1,6.26,1.91,10,10,0,0,1,2.43,3.22,11.82,11.82,0,0,1,4.28-3.87,12,12,0,0,1,5.53-1.26q6.56,0,8.93,4.74A15.49,15.49,0,0,1,489,110.2v21.66h-5.68v-22.6q0-3.25-1.63-4.47a6.43,6.43,0,0,0-4-1.21,7.87,7.87,0,0,0-5.54,2.16q-2.32,2.16-2.32,7.2v18.92h-5.56V110.62a11,11,0,0,0-.79-4.83q-1.25-2.28-4.65-2.28a8,8,0,0,0-5.63,2.4q-2.54,2.4-2.54,8.69v17.25h-5.47Z" transform="translate(-19.87 -1)"/></g><g id="glasses"><circle class="cls-3" cx="368.82" cy="32.08" r="26.5"/><path class="cls-4" d="M388.69,1a32.08,32.08,0,1,0,32.08,32.08A32.08,32.08,0,0,0,388.69,1Zm0,58.58a26.5,26.5,0,1,1,26.5-26.5A26.5,26.5,0,0,1,388.69,59.58Z" transform="translate(-19.87 -1)"/><path class="cls-4" d="M420.78,46.75,422.11,42a36.45,36.45,0,0,1,13.25,8.75,33.69,33.69,0,0,1,8.33,14.17l-4.08,1.33a32.64,32.64,0,0,0-7.38-11.33A55.36,55.36,0,0,0,420.78,46.75Z" transform="translate(-19.87 -1)"/><path class="cls-4" d="M422.19,93.67h6s4.68-22,26-22,26,22,26,22h5.67s-3.42-28-31.83-28S422.19,93.67,422.19,93.67Z" transform="translate(-19.87 -1)"/></g></svg>